<?xml version="1.0" encoding="UTF-8" standalone="no"?>
<!-- Created with Inkscape (http://www.inkscape.org/) -->

<svg
   xmlns:dc="http://purl.org/dc/elements/1.1/"
   xmlns:cc="http://creativecommons.org/ns#"
   xmlns:rdf="http://www.w3.org/1999/02/22-rdf-syntax-ns#"
   xmlns:svg="http://www.w3.org/2000/svg"
   xmlns="http://www.w3.org/2000/svg"
   xmlns:sodipodi="http://sodipodi.sourceforge.net/DTD/sodipodi-0.dtd"
   xmlns:inkscape="http://www.inkscape.org/namespaces/inkscape"
   id="svg2996"
   version="1.1"
   inkscape:version="0.48.5 r10040"
   width="1400"
   height="1400"
   sodipodi:docname="cd-logo-final.svg">
  <metadata
     id="metadata3002">
    <rdf:RDF>
      <cc:Work
         rdf:about="">
        <dc:format>image/svg+xml</dc:format>
        <dc:type
           rdf:resource="http://purl.org/dc/dcmitype/StillImage" />
        <dc:title></dc:title>
      </cc:Work>
    </rdf:RDF>
  </metadata>
  <defs
     id="defs3000" />
  <sodipodi:namedview
     pagecolor="#ffffff"
     bordercolor="#666666"
     borderopacity="1"
     objecttolerance="10"
     gridtolerance="10"
     guidetolerance="10"
     inkscape:pageopacity="0"
     inkscape:pageshadow="2"
     inkscape:window-width="1440"
     inkscape:window-height="852"
     id="namedview2998"
     showgrid="false"
     fit-margin-top="0"
     fit-margin-left="0"
     fit-margin-right="0"
     fit-margin-bottom="0"
     inkscape:zoom="0.36769553"
     inkscape:cx="556.07246"
     inkscape:cy="639.67836"
     inkscape:window-x="0"
     inkscape:window-y="0"
     inkscape:window-maximized="1"
     inkscape:current-layer="layer2"
     borderlayer="true">
    <inkscape:grid
       type="xygrid"
       id="grid3035"
       empspacing="5"
       visible="true"
       enabled="true"
       snapvisiblegridlinesonly="true"
       originx="-28.454112px"
       originy="-60.84375px" />
  </sodipodi:namedview>
  <g
     inkscape:groupmode="layer"
     id="layer2"
     inkscape:label="Background">
    <rect
       style="fill:#0074a2;fill-opacity:1;stroke:none"
       id="rect3056"
       width="1400"
       height="1400"
       x="0"
       y="0" />
  </g>
  <g
     inkscape:groupmode="layer"
     id="layer1"
     inkscape:label="Logo"
     style="display:inline">
    <path
       style="fill:#ffffff;fill-opacity:1"
       d="m 693.78064,331.66001 c -23.75,0 -46.89553,0.65024 -60.6875,2 -64.74113,6.33595 -124.61443,25.32033 -182.46875,54.09375 -56.13894,27.92029 -100.44571,59.75821 -144.5625,103.875 -44.11679,44.11679 -75.92347,88.39231 -103.84375,144.5312 -28.77342,57.8544 -46.71726,117.838 -54.09375,182.4688 -6.58482,57.6944 -3.86634,92.1601 0,125 2.93956,24.9681 6.23497,43.2746 12.625,69.75004 l 4.0625,16.75 190.40625,0 190.40625,0 146.75,-98.62504 c 80.70451,-54.2554 156.28921,-105.126 167.96875,-113.0312 l 21.21875,-14.375 23.28125,35 c 14.54165,21.8717 23.85602,34.9826 24.875,35 1.367,0.023 4.97751,-16.7127 22.25,-103.6875 12.88567,-64.8853 20.2455,-104.067 19.65625,-104.6563 -0.89597,-0.896 -203.6179,-41.57455 -207.28125,-41.59375 -0.9625,-0.005 -1.75,0.46029 -1.75,1.03125 0,0.57095 10.43744,16.536 23.1875,35.5 13.61428,20.2494 22.79731,34.8234 22.25,35.3125 -0.51256,0.458 -69.65103,47.043 -153.65625,103.5 l -152.75,102.625 -115.9375,0 -115.90625,0 -0.71875,-7.7187 c -0.39776,-4.2448 -0.4392,-15.3823 -0.0625,-24.75 3.8528,-95.81 35.36013,-181.9846 92.84375,-254.0313 72.23177,-90.53116 174.59628,-146.35706 291.75,-159.125 21.10506,-2.30012 62.89494,-2.30012 84,0 72.39826,7.89029 135.94598,30.75 195,70.15625 105.72856,70.55181 174.52726,184.85815 187.43756,311.46875 1.9818,19.4362 3.0144,46.7885 2.125,56.2813 l -0.7188,7.7187 -131.50001,0 -131.5,0 -41.65625,28.0938 c -22.92039,15.4394 -65.0875,43.8053 -93.6875,63.0625 -28.6,19.25714 -52.415,35.43414 -52.9375,35.93754 -0.57477,0.5537 109.09417,0.9062 277.65625,0.9062 l 278.59381,0 4.0624,-16.75 c 6.3901,-26.47544 9.6791,-44.77904 12.5938,-69.75004 2.1626,-22.9812 6.2449,-77.5042 0,-125 -8.48,-64.4953 -25.2891,-124.6144 -54.0625,-182.4688 -27.9203,-56.13889 -59.7582,-100.41441 -103.875,-144.5312 -44.1168,-44.11679 -88.39232,-75.95471 -144.53126,-103.875 -57.85432,-28.77342 -117.67397,-48.6952 -182.5,-54.09375 -16.20803,-1.34976 -40.5625,-2 -64.3125,-2 z m 1.625,134.875 c -16.33443,0 -29.5625,13.25932 -29.5625,29.59375 0,16.33443 13.22807,29.5625 29.5625,29.5625 16.33443,0 29.59375,-13.22807 29.59375,-29.5625 0,-16.33443 -13.25932,-29.59375 -29.59375,-29.59375 z m -235.90625,88.78125 c -16.33443,0 -29.5625,13.25932 -29.5625,29.59375 0,16.33443 13.22807,29.5625 29.5625,29.5625 16.33443,0 29.59375,-13.22807 29.59375,-29.5625 0,-16.33443 -13.25932,-29.59375 -29.59375,-29.59375 z m 469.3125,0.28125 c -16.33443,0 -29.5625,13.22807 -29.5625,29.5625 0,16.33443 13.22807,29.59375 29.5625,29.59375 16.33443,0 29.59375,-13.25932 29.59375,-29.59375 0,-16.33443 -13.25932,-29.5625 -29.59375,-29.5625 z m -597.25,197.96875 c -16.33443,0 -29.59375,13.2281 -29.59375,29.5625 0,16.3344 13.25932,29.5938 29.59375,29.5938 16.33443,0 29.5625,-13.2594 29.5625,-29.5938 0,-16.3344 -13.22807,-29.5625 -29.5625,-29.5625 z m 725.03121,0.25 c -16.3344,0 -29.5625,13.2593 -29.5625,29.5938 0,16.3344 13.2281,29.5625 29.5625,29.5625 16.3345,0 29.5938,-13.2281 29.5938,-29.5625 0,-16.3345 -13.2593,-29.5938 -29.5938,-29.5938 z"
       id="path3033"
       inkscape:connector-curvature="0"
       sodipodi:nodetypes="ssssssscccccccccsscssscccccsssssscccccssscccsssssssssssssssssssssssssssssss" />
  </g>
</svg>
